/* XPM */
static char *test[] = {
/* columns rows colors chars-per-pixel */
"64 64 256 2 ",
"   c #010204",
".  c #01040B",
"X  c #030A0D",
"o  c #070A08",
"O  c #0A150A",
"+  c #010612",
"@  c #030A14",
"#  c #040C19",
"$  c #090C16",
"%  c #0B131B",
"&  c #0A1317",
"*  c #151819",
"=  c #14100D",
"-  c #281916",
";  c #1A2718",
":  c #1B3013",
">  c #253A1D",
",  c #24371C",
"<  c #27281C",
"1  c #171C24",
"2  c #091826",
"3  c #231E27",
"4  c #1C2327",
"5  c #182934",
"6  c #25272A",
"7  c #2A3D23",
"8  c #293727",
"9  c #333A2B",
"0  c #2B2C33",
"q  c #262A34",
"w  c #2B3437",
"e  c #35383A",
"r  c #342C2E",
"t  c #4A3830",
"y  c #4E2E24",
"u  c #28411E",
"i  c #2E4225",
"p  c #2E4328",
"a  c #304427",
"s  c #32452A",
"d  c #36492D",
"f  c #384C2F",
"g  c #324928",
"h  c #364B31",
"j  c #3A4D32",
"k  c #394736",
"l  c #3E5135",
"z  c #3E543A",
"x  c #3D5638",
"c  c #364E2F",
"v  c #43493B",
"b  c #405437",
"n  c #42553A",
"m  c #45593D",
"M  c #485C3E",
"N  c #44573A",
"B  c #584439",
"V  c #604D3D",
"C  c #3B3D43",
"Z  c #353B44",
"A  c #293846",
"S  c #1B2E44",
"D  c #3B4447",
"F  c #394A52",
"G  c #3D4F62",
"H  c #444849",
"J  c #455C42",
"K  c #4A5D41",
"L  c #475646",
"P  c #474C53",
"I  c #495457",
"U  c #555958",
"Y  c #564F49",
"T  c #6B564C",
"R  c #4D6145",
"E  c #4D644A",
"W  c #496244",
"Q  c #506446",
"!  c #526549",
"~  c #55694D",
"^  c #586C4E",
"/  c #586B53",
"(  c #5C7155",
")  c #6E6A59",
"_  c #4C5B69",
"`  c #586568",
"'  c #576976",
"]  c #556C74",
"[  c #666967",
"{  c #66757A",
"}  c #797A76",
"|  c #6E716C",
" . c #6B5D63",
".. c #423E44",
"X. c #876D5C",
"o. c #8E776A",
"O. c #936B69",
"+. c #7B8279",
"@. c #82847D",
"#. c #988677",
"$. c #A48879",
"%. c #5A6E85",
"&. c #687A85",
"*. c #6F7B8C",
"=. c #6A848A",
"-. c #75868A",
";. c #6A8B96",
":. c #768B96",
">. c #6D919B",
",. c #74949C",
"<. c #7A959B",
"1. c #7C918C",
"2. c #7495A3",
"3. c #7C9BA4",
"4. c #7C9CAB",
"5. c #7798A6",
"6. c #7C9DB3",
"7. c #728FA3",
"8. c #7DA1AB",
"9. c #7DA3B6",
"0. c #5E838C",
"q. c #7DA8C0",
"w. c #888A85",
"e. c #8D918A",
"r. c #92948D",
"t. c #9B9589",
"y. c #85969B",
"u. c #969992",
"i. c #9A9C95",
"p. c #9C9E99",
"a. c #949793",
"s. c #8D8C90",
"d. c #AA978C",
"f. c #9EA19B",
"g. c #96A499",
"h. c #90A697",
"j. c #A1A39D",
"k. c #ACA597",
"l. c #B5A899",
"z. c #839CA4",
"x. c #829EAA",
"c. c #889AA6",
"v. c #839DB3",
"b. c #959BA6",
"n. c #84A3AC",
"m. c #8AA4AD",
"M. c #87A4A9",
"N. c #97A5AA",
"B. c #84A4B3",
"V. c #89A6B3",
"C. c #8BAAB4",
"Z. c #84A5BB",
"A. c #8AA6BB",
"S. c #85AABC",
"D. c #8BABBC",
"F. c #85A9B4",
"G. c #92ADBD",
"H. c #96AAB6",
"J. c #95B2BC",
"K. c #8DB0BC",
"L. c #A7A9A5",
"P. c #B7B9B6",
"I. c #ADB1B1",
"U. c #A59DA6",
"Y. c #C5B5AA",
"T. c #BCC1BC",
"R. c #C8C4BB",
"E. c #86ABC2",
"W. c #8CACC2",
"Q. c #8DACCB",
"!. c #86A7C5",
"~. c #93ADC4",
"^. c #99AEC5",
"/. c #93AECB",
"(. c #99ADC9",
"). c #8DB1C3",
"_. c #8BB2C8",
"`. c #93B2C3",
"'. c #9BB2C5",
"]. c #94B1CD",
"[. c #9BB3CB",
"{. c #9DB9CA",
"}. c #8AADD3",
"|. c #8DB3DB",
" X c #95B3D2",
".X c #9BB5D2",
"XX c #9DBAD5",
"oX c #93B7DE",
"OX c #94BADE",
"+X c #9CBDDC",
"@X c #98B7D8",
"#X c #91AED1",
"$X c #A1B6CC",
"%X c #A3BACD",
"&X c #A6B8C6",
"*X c #A4BCD3",
"=X c #A9BED2",
"-X c #A2BEDB",
";X c #A8BAD6",
":X c #B3B8CA",
">X c #8FB8E3",
",X c #8DB7E1",
"<X c #91B7E1",
"1X c #94BBE3",
"2X c #9BBEE2",
"3X c #95BEE9",
"4X c #99BFE9",
"5X c #A1BFE1",
"6X c #BBBFE2",
"7X c #9FC0DE",
"8X c #9FC2C8",
"9X c #ACC2D5",
"0X c #A5C1DD",
"qX c #ABC4DD",
"wX c #A9C3D9",
"eX c #B1C6DA",
"rX c #B4CADD",
"tX c #B9CADE",
"yX c #B6C5D6",
"uX c #B5C5C9",
"iX c #9EC1E3",
"pX c #99C1EA",
"aX c #A4C2E3",
"sX c #AAC5E2",
"dX c #AEC8E4",
"fX c #A7C8E9",
"gX c #B4CBE4",
"hX c #BACDE4",
"jX c #B5CCE9",
"kX c #BACEE9",
"lX c #B3C6E4",
"zX c #BDD2E5",
"xX c #BDD2EA",
"cX c #B5D1ED",
"vX c #B4D1F1",
"bX c #C7C8C7",
"nX c #D6D7D7",
"mX c #CDD1D1",
"MX c #C1D2E6",
"NX c #C2D6EA",
"BX c #C5DAED",
"VX c #C9DCEE",
"CX c #CAD7E8",
"ZX c #CADEF1",
"AX c #C6DAF0",
"SX c #D0DFF2",
"DX c #D4DBF6",
"FX c #C8D2E6",
"GX c #CDE1F3",
"HX c #CDE8F4",
"JX c #D2E2F3",
"KX c #D9E7FA",
"LX c #D2E2EB",
"PX c #E3E4E4",
"IX c #C1BCC4",
"UX c #847E82",
/* pixels */
"9XeXeXyXtXtXtXtXrXlXtXhXtXtXMXMXMXyXMXMXtXMXtXtXMXtXMXtXtXMXtXtXMX6XtXtXtXMXtXtXMXtXMXMXtXtXtXtXtXyXyXtXtXtXtXyXtXyXyXyXlXyXeXqX",
"eXeXeXyXtXlXyXrXyXtXtXlXMXMXMXtXtXMXMXtXMXtXtXtXtXMXtXtXtXMXMXMXMXtXMXtXtXtXyXMXyXMXtXMXMXMXtXMXMX6XtXlXtXtXtX6XrXtXrXrXrXeXyX9X",
"9XeXeXrXrXyXtXyXtXtXtXtXMXtXMXtXMXtXMXMXtXMXtXtXMXtXMX6XMXtXhXMXtXtXtXtXtXtXtXMXMXhXtXMXtXMXtXtXtXtXMXtXtXtXtXtXyXtXyXrXeX6XrXyX",
"rXrXrXrXyXrXrXrXtXtXtXtXtXMXtXMXtXMXtXtXMXtXtXMXtXtXtXtXtXtXMXMXMXMXMXtXMXtXMXtXtXtXMXMXMXtXMXtXMXtXtXMXMXtXMXtXlXtXrXyXeXrXyXrX",
"rXtXrXrXrXtXtXtXtXtXtXtXMXMXMXtXtXMXMXMXhXMXtXMXtXMXMXtXtXMXMXtXtXMXMXtXtXMXtXtXtXtXMXtXtXMXtXtXtXMXMXtXMXtXtXtXtXrXeX6XeXeXrXyX",
"rXyXeXrXyXrXrXrXtXtXhXtXtXtXtXMXMXtX6XtXMXyXMXtXMXtXtXtXtXtXtXtXMXhXtXMXMXtXtXMXMXyXtXMXMXtXMX6XMXtXtXMXtXMXMXtXtXrXyXrXyXyXrXeX",
"eXeXeXeXrXyXrXtXtXtXtXMXhXtXtXMXtXMXMXtXtXtXMXtXtXtXtXMXMXtXMXtX6XtXMXtXtXMXtXMXtXMXtXMXtXMXtXMXtXMXtXtXMXtXMXtXhXtXrXyXyXeXyXrX",
"eXeXeXrXrXrXrXyXyXtXtXhXtXtXyXMXMXMXtXMXtXMXtXtXtXMXMXtXtXtXyXMXtXtXyXMXtXMXtXtXMXtXMXtXtXMXMXtXMXtXtXMXyXMXtXMXMXhXrXrXyXeXeX6X",
"eXeX9XeXeXeXrXyXrXtXtXtXtXtXtXhXMXtXMXtXtXMXMXtXtXMXtXtXtXtXMXtXtXtXtXtXMXyXMXtXMXMXMXtXMXtXMXMXMXtXtXMXMXtXMXtXtXtXtXrXyX9XyXhX",
"9X=XeXyXeXrXyXrXyXrXtXtXhXtXtXMXtXMXtXMXtXtXtXtXtXtXtXtXtXtXtXhXMXtXtXMXhXtXtXMXtXtXtXMXMXtXMXtXtXMXtXtXtXMXtXtXMXtXtXyXrX6XyXtX",
"9X9XeX9XeXeXeXrXrXyXlXtXtXtXyXhXtXtXMXtXtXtXtXMXtXtXtXMXtXtXtXtXMXtXtXtXMXtXtXtXtXtXtXMXtXMXMXtXMXtXMX6XMXtXyXMXtXtXyXtXyXtXtXtX",
"eXyX9XeX9X9XeXrXrXrXyXlXtXtXtXtXtXtXtXlXtXMXtXtXtXtXtXtXtXtXtXhXyXtXtXtXtXtXtXMXMXMXtXtXMXtXMXMXtXMXMXhXMXtXMXtXtXtXtXyXrXtXyXhX",
"9XyXqX9X9XeXeXeXeXyXyXrXtXrXhXtXrXtXtXtXtXtXtXtXtXtXtXtXtXrXtXrXtXtXtXtXtXtXtXtX6XtXMXtXMXtXMXMXMXMXMXMXhXMXyXMXMXtXyXlXrXtXtXtX",
"=X=X9X9X=XeX9XyX6XeXeXyXyXtXtXyXtXtXrXtXtXtXtXlXyXhXyXtXtXtXtXyXtXyXtXtXtXtXtXtXtXtXtXtXtXMXtXMXMXtXMXtXMXtXMXhXtXlXyXyXyXlXtXtX",
"9X=X=X9X=XyX9XeX9X9X9XyXrXyXrXtXyXrX6XrXyXrXrXrXlXyXtXrXrXyXrXrXyXtXtXlXtXtXtXtXtXMXtXtXMXtXMXMXMXtXMXtXtXMXMXtXtXyXlXyXyXyXtXtX",
"9XyX=X9X9XeX9X=XyXeX9X6XrXtXrXrXrXyX9XrXyXrXyXyXtXrXyXrXtXrXyXeXyXlXyXyXyXtXtXhXtXtXtXMXtXMXMXtXMXMXtXMXMXMXtXMXhXtXyXyXhXtXyXMX",
"=X9XyX=XeX9X9X9XeXeX9X9XyXyX9XyXeXyXeXeXeXeXyXeXeXrXrXrXeXrXrXrXeXyXyXtXtXtXtXtXtXtXyXMXyXMXMXtXyXtXMXMXtXmXrXtXtXtXtXyXyXtXtXtX",
"yX=X=X9X=X9XyX9X9XyX=XeX6XeX6XrXeXeXeXeXeXeXeXrXrXeXeXrXrXeXyXrXrXeXrXlXtXtXtXtXMXtXhXyXhXtXtXMXMXtXtXtXMXMXtXtXtXyXrXyXrXyXtXyX",
"eXeX=X=XqXyX=XeX=X9X=XeX9XyXeXyXeXeXeXeXeXeXeXeXyXeXeXeXeXeXeXeXrXrXrXyXtXtXtXtXtXtXhXMXMXyXtXtXMXtXtXtXtXtXtXtXyXrXyXyXyXyXyXtX",
"=X=X9XeX=X=X9X=XeX=X9XyX9X9X9XyXeXeX9XyXeXeXeXeXeXeXrXeXeXyXeXeXrXeXyXtXtXtXhXtXtXtXtXyXMXhXtXtX6XtXtXtXtXtXyXrXtXyXyXtXrXrXyXyX",
"9X9X9X9X9XyX=X9X=X9X9X9X6XyX9XeXeXeXeXeXeXeXeXeXeXeXeXeXeXeXyXeXyXyXrXrXrXlXtXyXtXtXtXtXMXtXtXMXyXyXtXtXtXyXtXyXyXyXrXyXyXyXrXyX",
"yX9XeX9X9X9X6X9XyX9X=X=X=X=XyXeXeX9XeXeXyX9XeX9XeX9X9XyXeXeXeXyXeXeXeX6XtXyXtXtX6XyXtXtXtXtXtXtXhXtXlXyXtXyXtXyXrXtXyXyXtXyXyXtX",
"eX9XyX9X9X9X9X9X9X=X9X=X=X9X9XeXeXeXeXeX9XeXeXeXyXeXyX9X=XyXeXeX9X6XyXyXtXtXlXyXyXtXtXtXtXtXhXtXtXtXyXtXtXyXtXyXtXyXyXtXyXyXrXyX",
"9XeX9X9X9X9X9X9X9X=X9X9X9XyX6XeXeXeXeXeXeXeXeXyX9XqXyX9X6XrXeX6XeXeXrXrXtXtXtXtXrXtXyXtXtXtXtXtXtXtXtXtXtXyXtXyXyXrXrXyXrXtXyXtX",
"eXeX=XeX9XyXqX9X9X=XyX9XyXyXrXeXeXeXeXeXeX9XyXeX9XeXyXeXyXeXyXyXyXyXtXtXtXtXtXtXyXrXrXyXlXtXlXtXyXtXtXtXtXtXrXyXtXyXyXrXyXtXyXtX",
"9XyXeX9X9XeX9X9X9X9XyX9X9XeXyXrXeXeXeXeXeXeXeXeXyXrXrXyXrXyXrXrXyXrXyXtXhXtXtXtXtXrXyXrXrXyXyXtXtXtXrXtXtXyXtXtXyXtXtXtXtXyXtXyX",
"eXeX9X9XeX9XeX9X=XeXeX9X=XyXyXrXuXrXrXuXrXtXrXyXyXtXrXrX6XyXtXyXhXtXtXtXMXtXhXtXtXrXrXtXrXtXyXtXtXyXtXyXuXtXtXyXtXrXyXyXyXyXyXyX",
"eXyX9XeX9XyX9X9XeX=X9XeX9X6XrXtXrXrXrXzXtXyXtXtXrXyXlXyXtXtXtXtXtXtXhXMXtXMXMXhXtXtXtXyXyXlXtXrXrXtXtXrXyXrXyXtXyXyXrXyXtXrXyXrX",
"eX9X9XeX9X9X9X9X9XyXeX9XyXyXtXyXrXrXtXyXtXtXtXhXlXtXtXtXtXtXtXtXMXyXMXtXMXtXMXtXtXtXtXtXtXrXrXyXtXtXrXyXtXyXtXyXtXyXrXtXyXtXyXtX",
"eXyXeXeXeXyXeX9X9XeXeXeXrXrXlXyXtXrXtXtXtXtXtXtXMXtXtXtXMXtXMXtXtXMXtXMXMXMXMXMXhXtXtXtXrXyXtXrXtXyXtXrXyXtXyXrXyXtXyXyXtXyXtXyX",
"eXeXeXeXeX9X9XeXeX9XyXeXyXyXrXlXtXtXtXtXtXtXtXtXtXtXtXMXtXtXtXtXMXtXtXMXMXtXhXtXtXtXlXtXrXtXtXyXtXtXtXtXtXyXtXyXtXyXyXtXrXyXyXtX",
"eXeXeXeX9XeXyXeXeXeXeXrXrXrXrXyXyXtXtXtXtXtXtXtXtXtXtXtXtXMXMXtX6XMXtXMXhXMXMXMXMXhXtXtXrXyXrXrXtXtXtXtXyXtXtXtXyXrXtXyXrXrXtXyX",
"eXeXeXeXeXeXeXyXeXeXyXeXrXeXrXrXrXtXtXhXtXtXtXtXtXtXtXtXtXtXtXtXtXtXtXMXMXMXhXtXtXtXtXtXrXrXrXeXtXtXtXrXtXtXtXyXMX6XtXtXtXtXyXlX",
"eXeX9XeXeXeXeXeXeXeXrXeXyXeXrXrXrXyXrXyXrXtXtXhXtXtXtXtXtXtXMXtXMXtXtXtXMXtXtXMXtXtXtXtXtXrXrXeXrXrXrXtXtXtXtXtXtXyXtXtXtXyXtXyX",
"9XeXeXeXeXeXeXeXrXeXeXeXrXrXeXyXyXrXeXeXrXyXtXyXtXtXtXtXtXMXtXtXyXyXtXMXhXMXMXtXtXrXrXtXrXrXrXrXeXrXtXzXMXtXMXtXMXyXMXyXtXtXyXlX",
"9X9XeX9XeXuXeXeXeXeXeXeXeXeXrXeXyXrX6XyXrXtXrXrXtXtXtXtXtXtXtXtXtXtXtXtXtXtXtXtXrXtXyXeXrXrXeXeXrXeXrXtXtXtXyXMXtXMXtXMXMXtXtXtX",
"eXeXuXeXeXyXeXeXyXeXeXeXeXyXeXeXrXeXeXeXrXrXrXrXrXyXtXrXtXtXrXtXtXtXtXlXtXtXtXyXyXtXeXeXeXrXrXrXrXrXtXtXtXtXtXtXtXyXMX6XMXtXtXtX",
"eX9XeX9X9XeX9X9XeXeXeXeXeXrXrXrXeXrXeXrXrXrXyXyXrXtXyXtXrXyXrXtXtXtXtXyXyXtXtXlXyXeXeXrXrXrXrXrXrXrXtXrXtXtXMXtXMX6XMXMXtXMXMXhX",
"9X9X9X9X9X9XeX9XeXeXuXeXeXeXeXyXeXrXyXeXeXeXrXeXrXyXrXrXrXrXyXtXtXtXtXtXrXyXyXtXeXrXeXeXrXrXrXrXtXtXrXtXtXtXtXzXyXMXtXMXMXMXtXtX",
"9X9X9XeX9XeX9XeX9XeX9XeXeXeXrXrXeXeXeXrXeXeXeXrXrXrXrXrXrXrXrXrXyXtXtXlXyXrXtXrXyXrXrXyXrXrXuXrXyXyXeXrXtXtXtXtXMXMXMXMXyXtXMXtX",
"9X9X9X9X9XyX9XyXyX9XyXeXeXeXeXeXeXyXeXeXrXrXeXeXeXeXeXeXyXrXrXeXtXrXtXtXrXrXrXeXrXeXrXrXrXrXrXrXtXtXrXtXtXtXhXtXyXMXMXMXtXMXtXtX",
"9X9X9X9X9X9X9X9X9X9X9XeXeXyXeXeXeXeXyXeXeXeXeXeX9XyXrXeXeXrXeXeXyXrXrXrXtXyXeXrXeXtXrXrXrXrXrXrXrXrXyXtXtXtXMXtXMXtXtXMXMXtXMXtX",
"9X9X9X9X9X9X9X9X9X9X9XeX9XeXeXeXeXeXeXeXeX9XeXeXeXeXeXeXeXeXyXrXyXeXyXrXeXeXrXeXyXrXeXrXrXrXrXyXrXyXeXrXtXtXtXhXyXhXtXtXMXtXtXtX",
"9X9X=X=X=X=X=X9X9X9X9XeXeXeXeXeXeXeX9XeXeXyXeXeXeX9XeXeXeXeXrXeXeXeXeXeXeXeXeXrXrXeXrXeXrXrXrXrXrXrXrXyXrXtXrXtXyXhXtXMX6XMXtXtX",
"=X=X9X=X=X=X=X=X9X9XyX9X9XeXyXeXeXeX9XeXyX9XeXeXeXeXyXeXeXeXeXeXeXeXeXeXrXeXyXrXrXeXrXrXrXrXrXrXgXrXrXyXrXeXrXeXtXtXtXlXyXtXtXtX",
"=X9X=X=X=X=X=X=X9X9X9X9X9X9XeXeX9X9XeXyX9XeX9XeX9XeX9X9XyXeXeXeXeXrXrXeXrXeXrXeXyXrXrXrXrXrXrXrXrXrXrXrXeXrXrXeXyXtXtXtXtXtXtXrX",
"=XyX9X=X=X=X=X:X9X9X9X9XeXeXeX9XeXyXeXeXeX9XeXeXeXeXyXeX9XeXyX9XeXeXeXrXrXyXeXeXeXeXrXrXrXrXrXrXrXrXrXrXrXyXrXeXrXrXrXrXrXtXtXtX",
"=X=X=X=X=X=X9X9X9X9X9X9XyX9X9XeX9XeX9XeXeXyXeX9XeX9X9X9X9XyXeXeXeXeXrXeXeXeXeXeXeXrXrXeXyXeXrXrXrXrXrXrXrXrXrXrXyXrXrXrXtXtXtXtX",
"=X=X=X=X=X=X=X9X=X=X9X9XyX9XeXeXeXeXeX9XeXeXeX9XeXeX9XeXyX9X9XeXeXeXrXuXeXeXeXeXeXeXrXeXrXrXeXyXrXrXrXrXeXeXyXrXeXrXrXrXrXrXrXrX",
"9X=X=X=X=X=X%X=X=X9X=X9X9XeXyX9XeXeXeXyXeXeXeX9XeXyXeX9X9XeXeXeXeXeXeXrXrXyXrXrXeXeXrXeXrXrXrXrXrXtXrXrXrXeXrXrXrXrXtXrXtXrXrXzX",
"9X=X=X=X=X=X=X=X=X=XuX=X9XeXeXeX9X9XeXeXeXeXeXeXeXeXeXyX9XeXeX9XeXeXeXrXrXrXeXeXrXrXrXyXrXrXrXrXrXrXyXeXrXeXrXeXrXrXrXrXtXrXrXrX",
"=X9X9X:X=X%X:X=X=X=X=X9X=X9XeX9XyXeXeXeXyXeX9XeXeXeX9XeXeX9X9XyX9XeXeXeXrXrXrXeXuXrXeXrXrXrXrXrXrXrXrXrXrXrXyXeXtXrXrXtXzXrXrXzX",
"9X=X9X%X9X%X=X=X=X=X=X=X9XeX9XeXeXeXeXeXeXeXeXyXeXyX9X9XeX9X9XeXeXuXeXrXrXeXrXrXrXeXeXrXrXrXrXrXrXrXyXrXrXeXeXrXrXrXrXrXrXrXrXrX",
"=X=X%X9X9X=X=X=X=XyX=X=X9XyX=XeXeXeXyX9XeXeXeXeXeXeXeX9X9X9X9X9X9XeX9X9XeXeXeXrXrXeXrXeXeXrXrXrXrXrXrXrXrXrXrXrXrXrXrXrXrXrXrXrX",
"=X=X=X9X=X=X=X9X=X=X9XeXyX9XeX9XeXeXeXyX9XeXeXeXeX9X9XyX9X9XyX9X9XeX9XeXeXeXeXeXrXrXrXeXrXeXrXeXeXrXrXrXrXrXrXeXyXrXyXrXrXrXrXrX",
"=X=X=X:XuX=X=X9X9X9X9X=X9X9X9XeXeXeXeX9XeX9XyX9XeX9X9X9X9XeX9X9X9X9X9X9X9X9XuXeXeXeXeXrXuXrXeXrXyXeXrXrXrXrXyXrXrXrXrXrXrXtXrXrX",
"=X=X=X=X=X=X=XyX=XyX=XyX=X=X9XeX9XeXeXyXeXeX9XeXeX9XeX=X9X9XeX=XeX9X9X9XeXeXeXyXeXeXeXeXeXrXeXrXrXeXrXeXrXrXrXrXrXrXrXrXrXrXrXrX",
"=X=X=X=X=X=X=X=X=X=XeX=X=XeX9X=X9XeX=X9XeX9XeX9X9XeX9XeXyXeX9XeXeX9X9X9X9X9XeX9XeXeXeXuXeXeXeXrXrXrXeXrXrXrXrXeXrXrXrXrXrXrXrXrX",
":X=X=X=X=X=X9X=X9X9X9X=XyX=XeX=XeX=X9X9X=X9XyXeX9XyX9XyXeX9XeX=X9X9X9XeX9XyX9XeXeXeX9XeXeXeXeXeXrXeXrXeXrXrXrXeXrXrXrXyXrXrXrXyX",
":X=X=X=X=X=X=X=X9X=X=XyX=X9X9X=XyX=X9X=X9X9XeX=XeX9XeX9XeXeXeXyX9XeXyX9X9X9XeX9X9XeXeXeXeXeXeXeXrXrXeXrXrXuXrXeXrXrXrXrXrXrXrXrX",
"%X%X=X=X9X=X9X=XeX=X9X=X9XyX=X=X9X=XyXeXyX=XeX9X=XeX9XyXeXeX9X9X9X9X9X9X9X9XeX9X9X9XeXeX9XeXeXeXeXrXrXuXrXrXeXeXrXrXrXyXtXrXrXtX",
"%X9X=X=X=X=X=XyX=XyX=X9X=X=X=X=X=XyXeX=XeXeX=X9X9X9X9XeX9XeXeX9X9XyX9X9X9X9X9X9XuX9X9XeXeXeXeXeXeXeXrXrXeXeXeXrXuXrXrXrXrXrXrXrX",
"%X=X%X9X=X=X=X=X=X9X=X9X=X=X=X9X=X=X=X9X=X=XyX9XeX9X9XeXyXeX9XeXeX9X9XyX9X9X9X9X9XeX9XeX9XeXuXeXeXrXeXeXeXeXrXeXrXrXrXrXrXrXrXrX",
"=X%X=X%X=X9X=X=X=XyXeXyX=X=X=X=X9X=X=X=X9X=X=X9X=XeX=X=X=XeX9X9XyX=X9X9X=X9X9X9X9XeXeX9XeXeXeXeXeXeXeXeXrXuXeXeXeXeXrXrXrXrXrXrX"
};
